<svg id="Layer_1" data-name="Layer 1" xmlns="http://www.w3.org/2000/svg" viewBox="0 0 419.718 100"><defs><style>.cls-1{fill:#04d89f;}.cls-2{fill:#158fb5;}.cls-3{fill:#21edb2;}.cls-4{fill:#23accc;}.cls-5{fill:#32373e;}</style></defs><title>logo</title><polygon class="cls-1" points="66.609 0 66.609 100 118.834 86.635 92.721 9.364 66.609 0"/><polygon class="cls-2" points="51.656 0 51.656 100 0 86.635 25.828 9.364 51.656 0"/><polygon class="cls-3" points="66.609 20.346 66.609 79.654 97.71 71.727 82.16 25.898 66.609 20.346"/><polygon class="cls-4" points="51.656 20.346 51.656 79.654 20.691 71.727 36.174 25.898 51.656 20.346"/><path class="cls-5" d="M211.635,18.515V82.739h-9.817L166.4,39.25V82.739H154.566V18.515h9.817L199.8,62V18.515h11.836Z"/><path class="cls-5" d="M260.766,38.379q5.733,5.184,5.734,15.643V82.739H255.674V76.775a13.34,13.34,0,0,1-6.01,4.908,23.491,23.491,0,0,1-9.4,1.7,23.043,23.043,0,0,1-9.634-1.881,14.868,14.868,0,0,1-6.376-5.229A13.262,13.262,0,0,1,222,68.7a12.97,12.97,0,0,1,4.908-10.6q4.907-3.993,15.46-3.992h12.661V53.38q0-5.137-3.073-7.891t-9.129-2.752a26.364,26.364,0,0,0-8.12,1.285,19.966,19.966,0,0,0-6.743,3.578l-4.5-8.349a27.855,27.855,0,0,1,9.267-4.5,41.239,41.239,0,0,1,11.469-1.56Q255.03,33.195,260.766,38.379ZM250.307,73.06a10.732,10.732,0,0,0,4.725-5.642V61.729H243.2q-9.908,0-9.908,6.515a5.845,5.845,0,0,0,2.477,4.954,11.351,11.351,0,0,0,6.882,1.835A14.8,14.8,0,0,0,250.307,73.06Z"/><path class="cls-5" d="M355.4,38.562q5.413,5.367,5.413,16.1V82.739H349.349V56.133q0-6.422-2.844-9.68T338.339,43.2A11.963,11.963,0,0,0,329.072,47q-3.488,3.809-3.486,10.872V82.739H314.117V56.133q0-6.422-2.844-9.68T303.107,43.2a12,12,0,0,0-9.312,3.762q-3.441,3.762-3.44,10.917V82.739H278.886V33.746H289.8v6.239a17.842,17.842,0,0,1,6.881-5.046,23.382,23.382,0,0,1,9.175-1.743,22.168,22.168,0,0,1,9.771,2.064,15.868,15.868,0,0,1,6.744,6.1,20.411,20.411,0,0,1,7.8-6.01,25.34,25.34,0,0,1,10.552-2.156Q349.99,33.195,355.4,38.562Z"/><path class="cls-5" d="M419.534,61.912H381.092a13.318,13.318,0,0,0,5.275,8.578,17.287,17.287,0,0,0,10.6,3.166,17.858,17.858,0,0,0,13.3-5.321l6.147,7.064a20.714,20.714,0,0,1-8.35,5.964,33.091,33.091,0,0,1-25.6-1.193,23.113,23.113,0,0,1-9.5-8.945,25.253,25.253,0,0,1-3.349-12.982,25.633,25.633,0,0,1,3.257-12.891,23.114,23.114,0,0,1,9.038-8.945,26.369,26.369,0,0,1,13.027-3.211,25.707,25.707,0,0,1,12.8,3.166,22.425,22.425,0,0,1,8.808,8.9,26.99,26.99,0,0,1,3.165,13.258Q419.718,59.711,419.534,61.912Zm-33.9-16.285A13.705,13.705,0,0,0,381,54.3h27.8a13.527,13.527,0,0,0-4.5-8.625,13.674,13.674,0,0,0-9.358-3.3A13.839,13.839,0,0,0,385.633,45.627Z"/></svg>